# xmcd
#
# Track frame offsets: 
#        183
#        31165
#        51825
#        88723
#        115255
#        150345
#        202813
#        230850
#        261745
#
# Disc length: 3789 seconds
#
# Revision: 5
# Processed by: cddbd v1.5.2PL0 Copyright (c) Steve Scherf et al.
# Submitted via: ExactAudioCopyFreeDBPlugin 1.0
#
DISCID=740ecb09
DTITLE=United Jazz and Rock Ensemble, The - Highlights
DYEAR=1986
DGENRE=Jazz
TTITLE0=Ausgeschlafen
TTITLE1=Story Board
TTITLE2=Die Wiederkehr
TTITLE3=Circus Gambet
TTITLE4=Lady Bountiful
TTITLE5=Red Room
TTITLE6=Some Time In Silence
TTITLE7=Rip off
TTITLE8=Be-Bop Rock
EXTD=Performed by: \n  Wolfgang Dauner, \n  Volker Kriegel, \n  Barbar
EXTD=a Thompson, \n  Ian Carr, \n  Charlie Mariano, \n  Eberhard Weber
EXTD=, \n  Albert mangelsdorf YEAR: 1986
EXTT0=
EXTT1=
EXTT2=
EXTT3=
EXTT4=
EXTT5=
EXTT6=
EXTT7=
EXTT8=\n
PLAYORDER=
